# xmcd CD database file
#
# Track frame offsets:
#	183
#	23358
#	40683
#	63395
#	75283
#	99008
#	118683
#	131345
#	146808
#	156958
#	172833
#	184208
#	210983
#	229158
#	244533
#	266733
#
# Disc length: 3801 seconds
#
# Revision: 1
# Processed by: cddbd v1.5.2PL0 Copyright (c) Steve Scherf et al.
# Submitted via: CDex 1.70beta2
#
DISCID=c10ed710
DTITLE=Multiple artists CD - Compact Jazz - The Sampler
DYEAR=1900
DGENRE=Jazz
TTITLE0=Ella Fitzgerald - Mack the Knife
TTITLE1=Count Basie - April in Paris
TTITLE2=Oscar Peterson - The Shadow of Your Smile
TTITLE3=Gerry Mulligan - Bernie's Tune
TTITLE4=Astrud Gilberto - The Girl from Impanema (feat. The Stan Getz Quartet)
TTITLE5=Billie Holiday - Please Don't Talk About Me When I'm Gone
TTITLE6=Erroll Garner - Misty
TTITLE7=Stéphane Grappelli - Djangology
TTITLE8=Wes Montgomery - Goin' Out of My Head
TTITLE9=The Swingle Singers - Vendome
TTITLE10=Dinah Washington - What a Difference a Day Makes
TTITLE11=Jimmy Smith - Walk on the Wild Side
TTITLE12=Sarah Vaughan - Lullaby of Birdland
TTITLE13=Bill Evans - I've Got You Under My Skin
TTITLE14=Chick Corea - Captain Marver
TTITLE15=Chuck Mangione - Friends and Love
EXTD=
EXTT0=
EXTT1=
EXTT2=
EXTT3=
EXTT4=
EXTT5=
EXTT6=
EXTT7=
EXTT8=
EXTT9=
EXTT10=
EXTT11=
EXTT12=
EXTT13=
EXTT14=
EXTT15=
PLAYORDER=
